<?xml version="1.0" standalone="no"?>
<!DOCTYPE svg PUBLIC "-//W3C//DTD SVG 20010904//EN"
 "http://www.w3.org/TR/2001/REC-SVG-20010904/DTD/svg10.dtd">
<svg version="1.0" xmlns="http://www.w3.org/2000/svg"
 width="263.000000pt" height="325.000000pt" viewBox="0 0 263.000000 325.000000"
 preserveAspectRatio="xMidYMid meet">

<g transform="translate(0.000000,325.000000) scale(0.100000,-0.100000)"
fill="#000000" stroke="none">
<path d="M1240 3117 c-92 -11 -239 -47 -277 -69 -18 -10 -33 -14 -33 -10 0 4
-6 0 -13 -8 -7 -9 -29 -26 -49 -39 -21 -12 -38 -26 -38 -30 0 -4 -18 -27 -39
-51 -22 -25 -46 -56 -53 -70 -7 -13 -28 -49 -45 -79 -18 -30 -33 -65 -33 -77
0 -13 -4 -26 -10 -29 -24 -15 1 -242 41 -358 10 -31 19 -66 19 -78 0 -12 12
-27 30 -37 16 -9 34 -30 40 -46 14 -40 13 -51 -5 -36 -20 17 -35 4 -35 -31 0
-34 9 -37 33 -8 18 20 19 20 38 3 10 -9 22 -14 26 -11 3 4 3 7 -2 7 -4 0 -2 7
5 15 8 10 9 15 2 15 -7 0 -10 30 -9 86 2 68 6 88 19 98 14 10 15 15 5 25 -9 9
-9 14 3 21 18 11 30 4 30 -20 0 -26 17 -34 25 -13 13 40 55 57 143 57 69 1 86
-2 96 -16 15 -21 28 -24 20 -5 -3 9 6 12 37 9 52 -5 68 9 41 38 -41 44 -92 63
-155 57 -32 -3 -64 -11 -72 -17 -12 -10 -15 -9 -15 2 0 29 -86 -2 -116 -42
-10 -12 -14 -8 -22 21 -16 59 2 132 47 199 23 33 41 64 41 70 0 5 6 7 13 4 7
-2 19 7 27 20 14 27 45 44 125 71 28 10 57 24 66 32 15 12 22 12 55 -2 45 -19
88 -8 128 32 24 23 32 25 103 24 96 -2 139 -9 178 -31 17 -9 41 -20 55 -23 24
-6 65 -58 54 -69 -2 -3 5 -26 16 -52 11 -26 20 -56 20 -67 0 -10 4 -19 9 -19
8 0 17 -38 28 -115 1 -11 4 -60 7 -110 2 -49 8 -103 12 -119 6 -26 8 -27 19
-12 7 9 19 15 26 14 8 -2 13 3 11 10 -1 7 3 32 9 55 6 23 13 56 15 72 3 17 14
78 25 137 22 111 21 129 -5 218 -12 41 -30 70 -70 111 -43 46 -55 65 -60 103
-4 26 -13 46 -20 46 -7 0 -22 9 -34 21 -12 11 -37 25 -55 31 -17 6 -72 25
-122 43 -75 28 -107 34 -190 37 -55 1 -129 -1 -165 -5z m70 -308 c0 -5 -13 -9
-30 -9 -32 0 -41 16 -12 22 21 5 42 -1 42 -13z"/>
<path d="M1694 2467 c-4 -12 -11 -14 -27 -6 -13 5 -47 6 -82 2 -55 -7 -61 -11
-75 -40 -11 -23 -20 -31 -32 -27 -12 4 -18 0 -18 -11 0 -14 7 -16 43 -12 23 3
68 15 100 26 80 29 153 37 160 17 7 -17 37 -22 37 -7 0 19 -45 60 -72 67 -20
4 -29 2 -34 -9z"/>
<path d="M1591 2328 c-19 -5 -44 -16 -55 -24 -20 -14 -20 -14 4 -14 14 0 31
-9 38 -20 17 -28 56 -25 80 6 l19 27 31 -18 c34 -20 46 -17 36 8 -4 13 -99 50
-116 46 -1 0 -18 -5 -37 -11z"/>
<path d="M987 2287 c-23 -9 -37 -25 -37 -44 0 -18 64 -53 98 -53 40 0 51 17
12 18 -44 1 -54 11 -34 33 22 24 31 24 39 0 13 -41 71 -37 81 5 5 21 11 24 30
20 33 -9 30 0 -7 19 -32 17 -138 18 -182 2z"/>
<path d="M1705 2250 c-3 -6 1 -7 9 -4 18 7 21 14 7 14 -6 0 -13 -4 -16 -10z"/>
<path d="M1950 2215 c0 -12 33 -55 41 -55 5 0 9 14 9 30 0 25 -4 30 -25 30
-14 0 -25 -2 -25 -5z"/>
<path d="M658 2193 c-11 -3 -18 -14 -18 -28 0 -21 2 -22 25 -12 38 18 32 48
-7 40z"/>
<path d="M1870 2096 c0 -19 4 -24 15 -19 18 6 16 34 -2 41 -8 2 -13 -6 -13
-22z"/>
<path d="M2290 1984 c0 -8 5 -12 10 -9 6 4 8 11 5 16 -9 14 -15 11 -15 -7z"/>
<path d="M795 1970 c3 -5 15 -10 27 -10 13 0 18 -5 15 -14 -3 -8 0 -22 7 -31
10 -14 12 -12 14 15 2 25 -3 32 -23 40 -34 13 -48 13 -40 0z"/>
<path d="M1226 1921 c-4 -6 -4 -15 -1 -21 8 -13 72 -13 80 0 4 6 14 8 23 6 10
-3 24 -1 32 4 12 8 9 10 -11 10 -14 0 -46 3 -71 6 -29 4 -48 2 -52 -5z"/>
<path d="M1390 1921 c0 -12 56 -25 70 -16 6 3 8 11 5 16 -8 12 -75 12 -75 0z"/>
<path d="M851 1874 c0 -11 3 -14 6 -6 3 7 2 16 -1 19 -3 4 -6 -2 -5 -13z"/>
<path d="M840 1840 c0 -5 5 -10 10 -10 6 0 10 5 10 10 0 6 -4 10 -10 10 -5 0
-10 -4 -10 -10z"/>
<path d="M2315 1830 c3 -5 11 -10 16 -10 6 0 7 5 4 10 -3 6 -11 10 -16 10 -6
0 -7 -4 -4 -10z"/>
<path d="M885 1732 c4 -7 8 -23 10 -35 1 -12 6 -30 10 -39 5 -13 2 -18 -9 -18
-9 0 -16 -4 -16 -9 0 -9 -83 -119 -122 -162 -13 -14 -50 -36 -83 -48 -140 -54
-191 -75 -206 -88 -8 -7 -22 -13 -31 -13 -8 0 -37 -9 -64 -19 -27 -10 -87 -31
-134 -46 -47 -15 -119 -43 -160 -63 l-75 -37 -3 -577 -2 -578 1305 0 1305 0 0
576 c0 377 -4 582 -10 595 -6 10 -19 19 -29 19 -10 0 -48 14 -84 30 -37 17
-73 30 -82 30 -8 0 -15 4 -15 9 0 5 -13 11 -30 14 -16 4 -51 16 -77 28 -27 12
-64 28 -83 36 -19 9 -62 28 -95 44 -33 16 -66 29 -73 29 -7 0 -24 7 -37 16
-14 9 -25 13 -25 9 0 -4 -7 -2 -15 5 -8 7 -12 17 -8 23 3 5 2 7 -4 4 -12 -7
-36 19 -116 126 -32 43 -64 76 -70 74 -7 -3 -11 -10 -9 -17 2 -8 10 -38 18
-69 8 -30 14 -87 14 -127 0 -71 -37 -261 -59 -301 -14 -27 -14 -36 0 -27 8 5
10 -1 7 -17 -12 -51 -67 -236 -81 -269 -8 -19 -23 -66 -32 -105 -22 -94 -75
-265 -81 -265 -15 0 -33 32 -39 66 -4 21 -16 73 -26 114 -30 127 -49 204 -58
237 -7 26 -5 38 10 57 11 14 29 26 42 28 28 4 35 56 13 103 -29 60 -101 140
-129 143 -25 2 -31 -3 -91 -70 -37 -41 -60 -110 -51 -155 4 -21 10 -32 12 -25
3 6 9 10 14 6 5 -3 9 0 9 5 0 23 28 10 36 -16 9 -34 7 -49 -12 -91 -8 -18 -12
-37 -9 -42 3 -6 1 -10 -4 -10 -6 0 -11 -6 -11 -14 0 -7 -11 -38 -24 -67 -13
-30 -31 -88 -41 -129 -10 -41 -26 -84 -36 -96 -11 -11 -19 -29 -19 -39 0 -12
-3 -15 -9 -10 -10 10 -27 77 -66 260 -13 61 -36 157 -50 215 -14 58 -30 134
-36 170 -10 64 -17 99 -43 215 -22 96 -29 197 -16 243 6 23 14 42 18 42 4 0
14 -21 23 -48 12 -36 20 -46 33 -44 13 3 17 -1 13 -12 -7 -16 16 -40 27 -28 4
4 6 2 4 -3 -6 -19 28 -56 46 -49 12 5 17 2 14 -9 -2 -9 25 -38 66 -71 94 -78
94 -78 160 -61 31 8 60 14 64 13 4 0 15 2 25 5 9 4 25 10 35 14 9 3 20 5 24 5
11 -3 68 59 68 72 0 6 -7 2 -16 -9 -13 -17 -29 -20 -148 -23 -167 -5 -188 3
-262 105 -64 89 -113 149 -138 170 -14 13 -26 29 -26 35 -1 7 -12 27 -26 43
-15 17 -23 24 -19 17z m169 -278 c10 -25 -1 -29 -14 -5 -6 12 -7 21 -1 21 5 0
12 -7 15 -16z m257 -711 c13 -15 12 -15 -8 -4 -24 12 -29 21 -14 21 5 0 15 -7
22 -17z"/>
<path d="M1250 1730 c0 -6 7 -10 15 -10 8 0 15 2 15 4 0 2 -7 6 -15 10 -8 3
-15 1 -15 -4z"/>
<path d="M1365 1730 c-4 -6 8 -10 29 -10 19 0 38 5 41 10 4 6 -8 10 -29 10
-19 0 -38 -4 -41 -10z"/>
<path d="M1480 1726 c19 -17 70 -30 70 -17 0 14 -34 31 -61 31 -20 0 -21 -2
-9 -14z"/>
<path d="M1182 1719 c-26 -10 -25 -32 2 -37 20 -4 58 26 50 39 -6 11 -22 11
-52 -2z"/>
<path d="M1353 1613 c9 -2 23 -2 30 0 6 3 -1 5 -18 5 -16 0 -22 -2 -12 -5z"/>
<path d="M1588 1474 c-38 -43 -35 -52 3 -16 17 16 30 34 28 39 -2 5 -16 -5
-31 -23z"/>
</g>
</svg>
