<?xml version="1.0" standalone="no"?>
<!DOCTYPE svg PUBLIC "-//W3C//DTD SVG 20010904//EN"
 "http://www.w3.org/TR/2001/REC-SVG-20010904/DTD/svg10.dtd">
<svg version="1.0" xmlns="http://www.w3.org/2000/svg"
 width="300.000000pt" height="300.000000pt" viewBox="0 0 300.000000 300.000000"
 preserveAspectRatio="xMidYMid meet">

<g transform="translate(0.000000,300.000000) scale(0.100000,-0.100000)"
fill="white" stroke="none">
<path d="M1414 2497 l-71 -232 -69 -18 c-211 -55 -423 -220 -523 -406 -49 -93
-91 -233 -98 -326 l-6 -83 -143 -27 c-79 -15 -164 -32 -189 -39 l-45 -11 74
-74 75 -74 124 25 124 24 13 -50 c26 -105 96 -233 179 -327 l38 -44 -88 -274
-87 -274 77 77 76 76 55 155 c30 85 58 155 61 155 3 0 41 -20 85 -45 154 -88
342 -128 503 -107 120 16 238 56 331 112 l79 47 36 -99 c21 -55 46 -126 56
-157 16 -46 34 -72 95 -131 41 -41 73 -68 70 -60 -3 8 -42 129 -85 269 l-79
254 54 65 c68 82 125 193 160 307 25 80 28 106 28 237 l0 147 55 12 c29 6 116
23 193 38 l138 26 -75 75 -75 74 -146 -27 c-81 -15 -148 -26 -149 -25 -1 2
-13 23 -25 48 -110 219 -324 389 -553 440 l-52 12 -69 222 c-38 121 -71 226
-75 233 -3 6 -38 -93 -77 -220z m169 -624 c71 -197 82 -233 68 -237 -34 -10
-364 -76 -366 -74 -5 8 200 557 206 551 4 -5 45 -112 92 -240z m-303 205 c0
-15 -165 -547 -171 -552 -2 -1 -73 -16 -156 -33 l-153 -29 0 25 c0 54 42 197
77 265 26 49 65 99 128 162 74 75 105 99 175 133 93 45 100 47 100 29z m484
-12 c125 -55 261 -177 319 -285 16 -29 27 -54 25 -55 -8 -7 -280 -57 -285 -53
-2 3 -30 87 -62 188 -32 101 -61 194 -65 207 -9 28 0 28 68 -2z m415 -637 c2
-123 -48 -276 -128 -393 l-20 -30 -9 25 c-33 88 -143 461 -138 466 3 4 68 18
144 33 l137 26 6 -25 c4 -14 7 -60 8 -102z m-446 29 c2 -7 48 -133 102 -280
l97 -267 -29 -25 c-41 -37 -148 -91 -223 -114 -136 -41 -273 -37 -420 12 -77
26 -210 107 -210 129 0 6 36 112 81 234 l81 221 252 50 c138 28 254 51 257 51
4 1 9 -5 12 -11z m-693 -155 c-5 -16 -27 -88 -50 -161 l-41 -134 -26 34 c-30
39 -87 157 -101 209 l-10 37 97 20 c137 28 142 28 131 -5z"/>
</g>
</svg>
