<?xml version="1.0" standalone="no"?>
<!DOCTYPE svg PUBLIC "-//W3C//DTD SVG 20010904//EN"
 "http://www.w3.org/TR/2001/REC-SVG-20010904/DTD/svg10.dtd">
<svg version="1.0" xmlns="http://www.w3.org/2000/svg"
 width="300.000000pt" height="114.000000pt" viewBox="0 0 300.000000 114.000000"
 preserveAspectRatio="xMidYMid meet">

<g transform="translate(0.000000,114.000000) scale(0.100000,-0.100000)"
fill="white" stroke="none">
<path d="M509 1021 c-24 -72 -26 -74 -72 -91 -97 -37 -148 -96 -177 -204 -15
-60 -15 -60 -60 -69 -74 -13 -76 -15 -51 -41 19 -21 27 -23 54 -15 48 14 54
12 66 -23 7 -18 23 -51 37 -72 l26 -39 -25 -85 -26 -84 24 22 c14 13 32 45 40
71 9 27 18 49 20 49 1 0 28 -12 60 -26 49 -23 67 -26 125 -22 45 4 81 13 105
27 20 12 40 19 45 16 5 -3 16 -27 25 -54 8 -26 26 -58 40 -71 l24 -22 -30 92
-30 93 20 21 c32 34 55 96 61 166 l5 65 58 9 c31 4 57 12 57 16 0 4 -9 15 -19
24 -16 15 -30 17 -69 11 -49 -6 -50 -6 -71 29 -32 51 -96 102 -147 117 -44 13
-44 14 -67 89 l-23 75 -25 -74z m76 -264 c6 -22 3 -25 -37 -31 -24 -4 -53 -9
-65 -13 l-23 -5 25 68 c14 38 31 82 37 98 l12 29 23 -61 c12 -34 25 -72 28
-85z m-124 110 c-5 -12 -18 -55 -30 -94 -22 -75 -24 -76 -95 -89 l-38 -7 7 34
c16 74 57 129 120 162 41 22 46 21 36 -6z m238 -43 c42 -45 50 -64 29 -64 -7
0 -29 -3 -49 -6 l-37 -6 -16 55 c-9 31 -19 63 -22 71 -12 30 53 -4 95 -50z
m61 -164 c0 -49 -34 -139 -47 -126 -13 12 -52 151 -45 157 7 7 41 15 75 18 14
1 17 -8 17 -49z m-113 -72 c37 -103 36 -108 -33 -134 -57 -22 -150 -15 -197
15 l-34 21 27 77 27 78 74 17 c41 9 81 16 89 17 10 1 25 -29 47 -91z m-274 0
c-8 -29 -17 -55 -18 -57 -7 -7 -45 64 -42 79 2 12 22 21 69 29 4 0 0 -23 -9
-51z"/>
<path d="M1370 605 l0 -195 30 0 c23 0 30 4 30 20 0 20 0 20 29 -1 36 -27 97
-29 135 -4 81 53 79 207 -4 250 -41 21 -92 19 -124 -6 l-26 -20 0 75 0 76 -35
0 -35 0 0 -195z m193 3 c30 -35 26 -94 -9 -125 -29 -27 -61 -29 -92 -7 -18 12
-22 25 -22 68 0 38 5 57 18 68 36 32 74 31 105 -4z"/>
<path d="M1014 600 l-72 -190 38 0 c36 0 38 2 50 45 l13 45 72 0 72 0 17 -45
c16 -41 21 -45 52 -45 19 0 34 2 34 5 0 4 -111 296 -135 358 -5 11 -18 17 -39
17 l-31 0 -71 -190z m135 27 c11 -32 21 -62 21 -67 0 -6 -25 -10 -56 -10 -41
0 -55 3 -51 13 2 6 15 40 27 75 13 35 26 59 30 55 4 -4 17 -34 29 -66z"/>
<path d="M1740 550 l0 -140 35 0 35 0 0 90 0 90 33 20 c17 11 40 20 50 20 12
0 17 8 17 30 0 25 -4 30 -24 30 -13 0 -35 -12 -50 -26 l-26 -27 0 27 c0 23 -4
26 -35 26 l-35 0 0 -140z"/>
<path d="M2008 674 c-30 -16 -32 -22 -20 -42 7 -10 16 -9 46 3 61 26 116 3
116 -48 0 -10 -12 -13 -53 -9 -91 7 -145 -35 -132 -104 12 -65 104 -91 164
-46 27 20 28 20 39 1 8 -12 24 -19 42 -19 27 0 30 3 30 30 0 17 -4 30 -9 30
-5 0 -11 36 -13 81 -3 77 -5 82 -36 110 -28 25 -40 29 -90 29 -31 -1 -69 -8
-84 -16z m139 -150 c15 -38 -51 -84 -93 -65 -26 12 -33 48 -12 69 19 19 97 15
105 -4z"/>
<path d="M2320 550 l0 -140 35 0 35 0 0 85 c0 95 14 120 70 132 25 4 30 10 30
34 0 38 -33 39 -72 2 l-28 -27 0 27 c0 24 -4 27 -35 27 l-35 0 0 -140z"/>
</g>
</svg>
